<?xml version="1.0" standalone="no"?>
<!DOCTYPE svg PUBLIC "-//W3C//DTD SVG 20010904//EN"
 "http://www.w3.org/TR/2001/REC-SVG-20010904/DTD/svg10.dtd">
<svg version="1.0" xmlns="http://www.w3.org/2000/svg"
 width="1024.000000pt" height="1024.000000pt" viewBox="0 0 1024.000000 1024.000000"
 preserveAspectRatio="xMidYMid meet">

<g transform="translate(0.000000,1024.000000) scale(0.100000,-0.100000)"
fill="#000000" stroke="none">
<path d="M5218 9189 c-90 -13 -240 -67 -327 -118 l-80 -47 99 4 c69 3 100 1
100 -7 0 -6 -16 -11 -35 -11 -41 0 -92 -20 -237 -90 -127 -61 -188 -71 -287
-45 -35 9 -75 24 -89 33 l-25 16 7 -39 c17 -92 103 -195 163 -195 34 0 28 -13
-15 -38 -55 -30 -110 -37 -155 -18 -86 35 -11 -34 83 -78 37 -17 72 -26 107
-26 l51 0 -48 -92 c-54 -104 -86 -202 -106 -327 -32 -198 45 -502 168 -661 95
-125 123 -207 122 -372 l0 -116 85 -40 c47 -22 142 -59 211 -82 69 -23 154
-54 191 -70 36 -15 92 -35 124 -45 33 -9 123 -46 201 -81 78 -35 152 -64 166
-64 l24 0 -22 68 c-30 89 -58 290 -51 372 13 157 66 259 159 304 50 24 169 55
301 77 70 12 148 0 249 -36 209 -76 526 -135 715 -135 154 1 242 17 388 74
232 89 282 128 272 209 -11 83 -77 113 -224 103 -187 -14 -448 36 -652 124
-163 71 -267 139 -380 250 -117 116 -148 169 -167 292 -26 162 -88 319 -172
434 -16 22 -102 107 -190 187 -143 131 -171 152 -254 191 -111 53 -159 69
-260 90 -83 17 -122 18 -210 5z"/>
<path d="M4576 6839 c-12 -30 -26 -67 -30 -83 -4 -16 -25 -50 -47 -74 -49 -56
-57 -84 -34 -119 l18 -27 -110 -105 c-116 -111 -200 -205 -273 -305 -88 -121
-181 -267 -229 -363 -28 -54 -63 -120 -79 -148 -91 -161 -124 -230 -179 -385
-3 -8 -32 -33 -64 -55 -301 -205 -627 -455 -747 -572 -78 -77 -87 -83 -126
-83 -22 0 -77 -8 -121 -17 -161 -35 -241 -19 -361 73 -55 42 -152 151 -176
197 l-15 29 -23 -69 c-46 -136 -36 -342 21 -454 11 -23 19 -42 17 -44 -9 -9
-111 72 -130 103 l-23 37 -6 -75 c-7 -86 2 -149 37 -258 33 -101 69 -155 160
-241 41 -39 67 -71 59 -71 -8 0 -42 13 -76 29 l-60 29 6 -32 c19 -95 124 -257
237 -361 42 -40 79 -87 107 -138 148 -268 420 -500 800 -683 130 -63 133 -65
126 -92 -14 -59 -222 -418 -298 -515 -16 -21 -64 -64 -106 -96 -139 -106 -201
-182 -201 -246 0 -102 196 -299 453 -455 48 -29 87 -53 87 -54 0 -1 -170 -3
-377 -4 -436 -3 -718 -13 -731 -27 -17 -16 28 -23 156 -25 81 -1 174 -3 207
-5 33 -2 175 -6 315 -10 504 -12 567 -14 710 -24 80 -6 222 -15 315 -21 94 -6
183 -13 198 -16 27 -6 28 -5 17 16 -7 13 -8 26 -3 31 9 9 350 11 673 4 343 -8
1528 -9 1745 -2 116 4 338 9 495 12 388 7 584 15 592 23 4 4 -23 8 -60 8 -37
1 -157 5 -267 8 -341 11 -582 16 -780 16 -130 0 -185 4 -173 10 9 6 65 30 125
54 321 131 593 261 755 361 139 85 288 197 288 215 0 8 -12 24 -26 35 l-26 21
50 44 c28 25 74 65 102 89 66 56 99 119 82 156 -28 61 -133 70 -275 25 -102
-32 -128 -36 -158 -20 -24 13 -24 27 0 81 18 40 19 45 4 61 -36 40 -145 7
-258 -80 -563 -429 -719 -522 -878 -522 l-66 0 -168 203 c-232 278 -443 536
-443 542 0 3 7 5 15 5 26 0 27 26 5 111 -11 45 -19 83 -17 85 2 2 46 29 98 60
194 117 346 244 514 430 78 87 186 231 197 265 2 6 58 -8 131 -31 140 -45 150
-44 161 13 54 264 95 607 103 852 15 483 -96 981 -367 1650 -18 44 -43 101
-56 127 -29 57 -29 61 -5 53 14 -4 25 1 37 20 37 57 -3 304 -74 445 -36 74
-66 79 -113 19 -19 -23 -48 -58 -66 -78 l-32 -36 -85 43 c-48 23 -95 42 -106
42 -66 0 -67 -232 -3 -369 23 -48 95 -121 120 -121 11 0 48 25 82 55 34 30 66
55 70 55 23 0 40 -62 80 -290 12 -63 30 -167 41 -230 12 -63 25 -142 30 -176
5 -34 12 -68 16 -78 12 -32 -6 -15 -27 25 -33 66 -253 431 -310 516 -173 257
-416 541 -608 710 -165 145 -433 315 -534 339 -25 6 -29 3 -51 -47z m193
-1800 c-37 -181 -154 -487 -255 -670 -46 -84 -191 -306 -205 -314 -4 -3 29 56
75 132 182 301 328 637 377 864 6 28 13 48 15 46 3 -2 -1 -28 -7 -58z m-1092
-1122 c300 -121 333 -144 63 -45 -140 52 -348 143 -365 160 -11 11 8 4 302
-115z m304 -125 c-7 -2 -18 1 -23 6 -8 8 -4 9 13 5 13 -4 18 -8 10 -11z m963
-1448 c31 -25 56 -50 56 -56 0 -6 9 -8 20 -5 17 4 60 -48 269 -326 136 -183
280 -379 319 -437 l71 -105 -14 -60 c-8 -33 -15 -84 -15 -113 0 -56 0 -56 70
-111 l25 -20 -560 -2 c-721 -1 -749 -1 -753 11 -8 23 -35 40 -63 40 -33 0 -39
16 -9 25 35 11 80 56 80 79 0 33 -42 67 -97 77 -26 6 -124 18 -218 29 -440 50
-492 61 -615 127 -153 82 -243 168 -270 261 -12 38 -11 44 24 107 20 36 99
160 175 274 76 114 140 213 142 220 3 9 22 8 81 -8 313 -84 831 -78 1136 14
42 13 80 23 84 24 3 1 31 -19 62 -45z m-777 -1290 c-3 -3 -12 -4 -19 -1 -8 3
-5 6 6 6 11 1 17 -2 13 -5z"/>
<path d="M1964 1078 c-3 -4 4 -8 15 -8 12 0 21 4 21 8 0 5 -7 9 -15 9 -9 0
-18 -4 -21 -9z"/>
<path d="M2020 1080 c20 -13 50 -13 50 0 0 6 -15 10 -32 10 -25 0 -29 -3 -18
-10z"/>
<path d="M7533 1069 c-12 -5 -6 -8 20 -8 20 -1 37 3 37 7 0 10 -33 10 -57 1z"/>
<path d="M7650 1070 c0 -6 7 -10 15 -10 8 0 15 2 15 4 0 2 -7 6 -15 10 -8 3
-15 1 -15 -4z"/>
</g>
</svg>
